<svg xmlns="http://www.w3.org/2000/svg" width="1400" height="820" viewBox="0 0 1400 820" role="img" aria-labelledby="title desc">
  <title id="title">Kontrol skill loop mascots</title>
  <desc id="desc">Original worker and reviewer mascots for the Ralphie Nelson and supervised mission skills.</desc>
  <defs>
    <linearGradient id="bg" x1="0" y1="0" x2="1400" y2="820" gradientUnits="userSpaceOnUse">
      <stop stop-color="#04070b"/>
      <stop offset="0.52" stop-color="#101820"/>
      <stop offset="1" stop-color="#071316"/>
    </linearGradient>
    <linearGradient id="teal" x1="120" y1="120" x2="1220" y2="720" gradientUnits="userSpaceOnUse">
      <stop stop-color="#5eead4"/>
      <stop offset="1" stop-color="#0891b2"/>
    </linearGradient>
    <linearGradient id="amber" x1="0" y1="0" x2="1" y2="1">
      <stop stop-color="#fbbf24"/>
      <stop offset="1" stop-color="#f97316"/>
    </linearGradient>
    <filter id="shadow" x="-20%" y="-20%" width="140%" height="150%">
      <feDropShadow dx="0" dy="18" stdDeviation="18" flood-color="#000814" flood-opacity="0.42"/>
    </filter>
    <style>
      .label{font-family:sans-serif;font-weight:800;letter-spacing:0;fill:#e5f7f4}
      .mono{font-family:monospace;font-weight:700;letter-spacing:0;fill:#cbd5e1}
      .small{font-family:sans-serif;font-weight:700;letter-spacing:0;fill:#9fb6b6}
      .line{fill:none;stroke:#2dd4bf;stroke-width:5;stroke-linecap:round;stroke-dasharray:12 18;opacity:.78}
      .panel{fill:#081116;stroke:#2dd4bf;stroke-width:4}
      .skin{fill:#e8a063}
      .skin2{fill:#d7894f}
      .ink{fill:#05070a}
      .cream{fill:#f5f0df}
    </style>
  </defs>

  <rect width="1400" height="820" fill="url(#bg)"/>
  <path d="M180 96h1040c38 0 68 30 68 68v440c0 38-30 68-68 68H180c-38 0-68-30-68-68V164c0-38 30-68 68-68z" fill="#061014" stroke="#115e59" stroke-width="4"/>

  <g opacity=".9">
    <rect class="panel" x="190" y="142" width="270" height="118" rx="12"/>
    <text class="label" x="222" y="190" font-size="32">WebUI</text>
    <text class="small" x="222" y="226" font-size="18">reviewer surface</text>
    <rect class="panel" x="930" y="142" width="270" height="118" rx="12"/>
    <text class="label" x="966" y="190" font-size="32">CLI Agent</text>
    <text class="small" x="966" y="226" font-size="18">bounded worker</text>
    <rect class="panel" x="250" y="330" width="270" height="118" rx="12"/>
    <text class="label" x="286" y="378" font-size="32" fill="#fbbf24">Review Gate</text>
    <text class="small" x="286" y="414" font-size="18">policy + snapshot</text>
    <rect class="panel" x="880" y="330" width="270" height="118" rx="12"/>
    <text class="label" x="940" y="378" font-size="32">MCP</text>
    <text class="small" x="940" y="414" font-size="18">tools + data</text>
    <path class="line" d="M460 200h180"/>
    <path class="line" d="M760 200h170"/>
    <path class="line" d="M520 390h170"/>
    <path class="line" d="M760 390h120"/>
    <path class="line" d="M700 252v86"/>
  </g>

  <g filter="url(#shadow)">
    <path d="M700 252 785 301v98l-85 49-85-49v-98z" fill="#071316" stroke="url(#teal)" stroke-width="10"/>
    <path d="M664 317v88h-24v-88zm33 0h34l-41 43 45 45h-35l-43-44z" fill="#5eead4"/>
  </g>

  <g transform="translate(110 342)" filter="url(#shadow)">
    <path d="M86 372h330l-28-178c-12-74-70-124-137-124h-3c-68 0-126 50-138 124z" fill="#0f766e"/>
    <circle class="skin" cx="238" cy="116" r="96"/>
    <path class="skin2" d="M147 112c-36 0-52 22-52 48 0 24 20 42 46 42 12 0 22-4 30-10z"/>
    <path class="skin2" d="M329 112c36 0 52 22 52 48 0 24-20 42-46 42-12 0-22-4-30-10z"/>
    <path class="ink" d="M125 104c32-86 135-103 216-44 34 25 51 58 50 98-20-27-51-41-94-41-28 0-55-7-82-21-24 16-54 22-90 8z"/>
    <circle fill="#f8fafc" cx="198" cy="126" r="36"/>
    <circle fill="#f8fafc" cx="280" cy="126" r="36"/>
    <circle class="ink" cx="209" cy="132" r="9"/>
    <circle class="ink" cx="268" cy="132" r="9"/>
    <path d="M214 205c18-14 38-14 58 0" fill="none" stroke="#111827" stroke-width="8" stroke-linecap="round"/>
    <rect class="cream" x="20" y="202" width="184" height="224" rx="8" transform="rotate(-8 20 202)"/>
    <text class="mono" x="46" y="248" font-size="18" transform="rotate(-8 46 248)">diff --git</text>
    <text class="mono" x="45" y="284" font-size="14" transform="rotate(-8 45 284)" fill="#dc2626">- risky shortcut</text>
    <text class="mono" x="47" y="314" font-size="14" transform="rotate(-8 47 314)" fill="#16a34a">+ reviewed path</text>
    <text class="mono" x="51" y="350" font-size="14" transform="rotate(-8 51 350)">await_feedback()</text>
    <rect x="278" y="250" width="186" height="118" rx="10" fill="#09121a" stroke="#64748b" stroke-width="3"/>
    <text class="mono" x="300" y="290" font-size="18">kontrol run</text>
    <text class="mono" x="300" y="326" font-size="18">&gt; plan</text>
    <text class="mono" x="300" y="356" font-size="18">&gt; ???</text>
    <rect x="180" y="242" width="118" height="44" rx="6" fill="url(#amber)" stroke="#111827" stroke-width="4"/>
    <text class="label" x="195" y="273" font-size="22" fill="#111827">REVIEWER</text>
  </g>

  <g transform="translate(785 364)" filter="url(#shadow)">
    <path d="M96 350h342l-26-156c-12-70-68-116-135-116h-20c-67 0-123 46-135 116z" fill="#111827"/>
    <circle class="skin" cx="260" cy="104" r="90"/>
    <path d="M158 90c24-72 106-106 176-73 48 23 77 70 73 128-30-33-71-43-124-29-42 11-83 3-125-26z" fill="#0f172a"/>
    <path d="M188 42c46-39 107-43 160-8-54 9-99 29-135 62z" fill="#14b8a6"/>
    <circle fill="#f8fafc" cx="224" cy="113" r="27"/>
    <circle fill="#f8fafc" cx="304" cy="113" r="27"/>
    <circle class="ink" cx="218" cy="116" r="8"/>
    <circle class="ink" cx="298" cy="116" r="8"/>
    <path d="M197 78c28 18 55 18 82 0" fill="none" stroke="#111827" stroke-width="8" stroke-linecap="round"/>
    <path d="M235 176c30 18 65 14 96-12" fill="none" stroke="#111827" stroke-width="8" stroke-linecap="round"/>
    <path d="M140 94c-38 26-48 96-10 132" fill="none" stroke="#334155" stroke-width="24" stroke-linecap="round"/>
    <path d="M383 94c38 26 48 96 10 132" fill="none" stroke="#334155" stroke-width="24" stroke-linecap="round"/>
    <rect x="338" y="212" width="174" height="98" rx="10" fill="#991b1b" stroke="#fecaca" stroke-width="4" transform="rotate(-7 338 212)"/>
    <text class="label" x="386" y="274" font-size="52" fill="#fff" transform="rotate(-7 386 274)">OK</text>
    <circle cx="520" cy="202" r="34" fill="#dc2626" stroke="#fecaca" stroke-width="4"/>
    <rect x="18" y="252" width="170" height="92" rx="10" fill="#0b1118" stroke="#334155" stroke-width="3"/>
    <text class="mono" x="44" y="292" font-size="20" fill="#5eead4">ship only</text>
    <text class="mono" x="44" y="322" font-size="20" fill="#5eead4">after gate</text>
  </g>

  <g transform="translate(60 54)">
    <text class="label" x="0" y="0" font-size="46">RALPHIE / NELSON SKILLS</text>
    <text class="small" x="4" y="36" font-size="22">worker submits / reviewer judges / mission predicate decides</text>
  </g>
  <g transform="translate(950 665)">
    <rect x="0" y="0" width="370" height="74" rx="10" fill="#071316" stroke="#2dd4bf" stroke-width="3"/>
    <text class="mono" x="28" y="46" font-size="24">infra is code. judgment is human.</text>
  </g>
</svg>
